<?xml version="1.0" encoding="utf-8"?>
<!-- Generator: Adobe Illustrator 15.1.0, SVG Export Plug-In  -->
<!DOCTYPE svg PUBLIC "-//W3C//DTD SVG 1.1//EN" "http://www.w3.org/Graphics/SVG/1.1/DTD/svg11.dtd" [
	<!ENTITY ns_flows "http://ns.adobe.com/Flows/1.0/">
]>
<svg version="1.1"
	 xmlns="http://www.w3.org/2000/svg" xmlns:xlink="http://www.w3.org/1999/xlink" xmlns:a="http://ns.adobe.com/AdobeSVGViewerExtensions/3.0/"
	 x="0px" y="0px" width="81px" height="69px" viewBox="0 0 81 69" overflow="visible" enable-background="new 0 0 81 69"
	 xml:space="preserve">
<defs>
</defs>
<g>
	<defs>
		<rect id="SVGID_1_" width="81" height="69.179"/>
	</defs>
	<clipPath id="SVGID_2_">
		<use xlink:href="#SVGID_1_"  overflow="visible"/>
	</clipPath>
	<path clip-path="url(#SVGID_2_)" fill="#FFFFFF" d="M81,34.564c0,3.451-1.353,6.583-3.552,8.917
		c-0.378,4.923-3.497,9.078-7.846,10.952v0.046c-5.309,3.091-8.483,8.369-9.448,14.7h-4.91V54.492
		c0.032-4.577,1.472-7.509,4.49-9.317c1.104-0.636,2.107-1.361,2.963-2.166c2.241,0.805,4.224,2.382,5.484,4.628
		c0.263,0.44,0.731,0.689,1.196,0.689c0.225,0,0.461-0.055,0.671-0.18c0.672-0.369,0.911-1.205,0.535-1.868h-0.01
		c-1.412-2.513-3.562-4.367-5.999-5.471c1.252-1.924,1.946-4.214,1.914-6.965c0-0.014,0.018-0.028,0.018-0.047
		c0-1.242-0.183-2.452-0.514-3.589c2.866-0.547,5.391-2.001,7.25-4.05c0.516-0.565,0.478-1.435-0.091-1.941
		c-0.567-0.511-1.424-0.465-1.93,0.087c-1.62,1.763-3.805,2.968-6.289,3.299c-1.997-3.699-5.71-6.326-10.062-6.805
		c0.29-2.346,1.348-4.439,2.938-6.032c0.525-0.534,0.525-1.404,0-1.933c-0.533-0.539-1.417-0.539-1.949,0
		c-2.038,2.039-3.401,4.763-3.741,7.795c-5.112-0.644-9.05-4.983-9.06-10.266c0-0.749-0.62-1.375-1.356-1.375
		c-0.778,0-1.386,0.626-1.386,1.375c0,0.893,0.088,1.744,0.258,2.582c-1.937,1.676-4.348,2.522-6.763,2.522
		c-1.192,0-2.388-0.211-3.515-0.621c0,0-0.019-0.005-0.032-0.009c-1.39-0.501-2.664-1.299-3.769-2.403
		c-0.528-0.534-1.402-0.534-1.941,0c-0.539,0.533-0.539,1.4,0,1.938c1.131,1.128,2.407,2.002,3.763,2.632
		c-0.271,3.418-2.259,6.358-5.038,8.01c-1.606-2.439-4.021-4.371-6.988-5.315c-0.742-0.229-1.51,0.17-1.745,0.893
		c-0.202,0.723,0.166,1.491,0.898,1.717c2.204,0.698,3.975,2.056,5.249,3.786c-0.855,0.23-1.734,0.354-2.668,0.354h-0.014H17.86
		c-3.524,0-6.763,1.404-9.118,3.7c-0.558,0.529-0.571,1.399-0.023,1.938c0.261,0.276,0.621,0.414,0.994,0.414
		c0.313,0,0.658-0.129,0.925-0.387c1.868-1.822,4.417-2.921,7.223-2.921h0.148h0.004h0.014c6.607,0,12.096-4.92,12.956-11.297
		c0.939,0.203,1.877,0.313,2.83,0.313c2.683,0,5.388-0.832,7.665-2.48c0.832,1.9,2.148,3.561,3.745,4.849
		c-1.629,2.007-2.586,4.39-2.838,6.828c-0.686-0.11-1.408-0.17-2.131-0.17c-2.07,0-4.173,0.491-6.128,1.537
		c-0.672,0.355-0.925,1.187-0.57,1.859c0.248,0.455,0.731,0.723,1.224,0.723c0.225,0,0.427-0.051,0.625-0.166
		c1.574-0.824,3.221-1.215,4.849-1.215c0.728,0,1.445,0.078,2.131,0.225c0.298,2.779,1.501,5.498,3.565,7.661
		c0.276,0.286,0.631,0.424,0.985,0.424c0.336,0,0.686-0.125,0.957-0.379c0.562-0.528,0.575-1.389,0.041-1.937h-0.009
		c-1.836-1.941-2.806-4.407-2.87-6.901c0-0.037,0.009-0.065,0-0.106v-0.152c0-2.421,0.837-4.814,2.494-6.737
		c1.744,0.87,3.731,1.376,5.833,1.376c0,0,0.01,0.004,0.024,0.004h0.021c5.696,0.019,10.308,4.622,10.329,10.316
		c-1.08-0.285-2.193-0.432-3.334-0.432c-1.634,0-3.29,0.299-4.887,0.957c-0.709,0.29-1.045,1.086-0.759,1.785
		c0.289,0.699,1.076,1.041,1.78,0.755c1.278-0.51,2.581-0.758,3.865-0.758c1.034,0,2.062,0.156,3.022,0.454
		c-0.336,1.538-0.994,2.771-2.016,3.865c-0.079,0.07-0.152,0.146-0.212,0.239c-0.783,0.769-1.721,1.477-2.881,2.181
		c-3.97,2.318-5.875,6.525-5.834,11.678v14.688h-4.684V55.21c0-5.13-3.216-9.994-7.266-11.726c-1.932-0.749-3.948-2.006-5.415-3.648
		c-2.094,1.422-4.606,2.26-7.307,2.26c-2.711,0-5.222-0.824-7.302-2.237c-2.07,1.363-4.569,2.158-7.241,2.158
		C5.94,42.019,0,36.064,0,28.726c0-5.486,3.317-10.193,8.066-12.218C9.35,10.654,14.534,6.275,20.773,6.275
		c0.332,0,0.635,0.028,0.944,0.046c2.351-3.437,6.303-5.692,10.78-5.692c2.218,0,4.298,0.553,6.125,1.537
		C40.682,0.795,43.148,0,45.802,0c3.409,0,6.516,1.33,8.843,3.488c0.976-0.235,1.983-0.373,3.037-0.373
		c5.269,0,9.823,3.17,11.856,7.711c5.347,1.62,9.239,6.581,9.239,12.451c0,1.178-0.156,2.314-0.446,3.396
		C79.997,28.864,81,31.597,81,34.564"/>
</g>
</svg>
